<svg xmlns="http://www.w3.org/2000/svg" xmlns:xlink="http://www.w3.org/1999/xlink" width="500" zoomAndPan="magnify" viewBox="0 0 375 374.999991" height="500" preserveAspectRatio="xMidYMid meet" version="1.0"><path fill="#8a51fb" d="M 200.25 -89.132812 C 195.683594 -89.132812 191.125 -89.019531 186.566406 -88.796875 C 182.007812 -88.574219 177.457031 -88.238281 172.914062 -87.789062 C 168.371094 -87.34375 163.84375 -86.785156 159.328125 -86.113281 C 154.8125 -85.445312 150.316406 -84.664062 145.839844 -83.773438 C 141.363281 -82.882812 136.914062 -81.882812 132.484375 -80.773438 C 128.058594 -79.667969 123.660156 -78.449219 119.292969 -77.125 C 114.925781 -75.800781 110.59375 -74.367188 106.296875 -72.832031 C 102 -71.292969 97.742188 -69.652344 93.523438 -67.902344 C 89.308594 -66.15625 85.136719 -64.308594 81.011719 -62.355469 C 76.886719 -60.40625 72.808594 -58.355469 68.785156 -56.203125 C 64.757812 -54.050781 60.789062 -51.800781 56.875 -49.457031 C 52.960938 -47.109375 49.105469 -44.667969 45.308594 -42.132812 C 41.515625 -39.597656 37.785156 -36.96875 34.121094 -34.25 C 30.453125 -31.53125 26.855469 -28.726562 23.328125 -25.828125 C 19.800781 -22.933594 16.34375 -19.953125 12.964844 -16.890625 C 9.582031 -13.824219 6.277344 -10.675781 3.050781 -7.449219 C -0.175781 -4.222656 -3.324219 -0.917969 -6.390625 2.464844 C -9.453125 5.84375 -12.433594 9.300781 -15.328125 12.828125 C -18.226562 16.355469 -21.03125 19.953125 -23.75 23.621094 C -26.46875 27.285156 -29.097656 31.015625 -31.632812 34.808594 C -34.167969 38.605469 -36.609375 42.460938 -38.957031 46.375 C -41.300781 50.289062 -43.550781 54.257812 -45.703125 58.285156 C -47.855469 62.308594 -49.90625 66.386719 -51.855469 70.511719 C -53.808594 74.636719 -55.65625 78.808594 -57.402344 83.023438 C -59.152344 87.242188 -60.792969 91.5 -62.332031 95.796875 C -63.867188 100.09375 -65.300781 104.425781 -66.625 108.792969 C -67.949219 113.160156 -69.167969 117.558594 -70.273438 121.984375 C -71.382812 126.414062 -72.382812 130.863281 -73.273438 135.339844 C -74.164062 139.816406 -74.945312 144.3125 -75.613281 148.828125 C -76.285156 153.34375 -76.84375 157.871094 -77.289062 162.414062 C -77.738281 166.957031 -78.074219 171.507812 -78.296875 176.066406 C -78.519531 180.625 -78.632812 185.183594 -78.632812 189.75 C -78.632812 194.3125 -78.519531 198.875 -78.296875 203.433594 C -78.074219 207.992188 -77.738281 212.542969 -77.289062 217.082031 C -76.84375 221.625 -76.285156 226.15625 -75.613281 230.667969 C -74.945312 235.183594 -74.164062 239.679688 -73.273438 244.15625 C -72.382812 248.632812 -71.382812 253.085938 -70.273438 257.511719 C -69.167969 261.9375 -67.949219 266.335938 -66.625 270.703125 C -65.300781 275.070312 -63.867188 279.402344 -62.332031 283.699219 C -60.792969 288 -59.152344 292.253906 -57.402344 296.472656 C -55.65625 300.6875 -53.808594 304.859375 -51.855469 308.984375 C -49.90625 313.113281 -47.855469 317.1875 -45.703125 321.210938 C -43.550781 325.238281 -41.300781 329.207031 -38.957031 333.121094 C -36.609375 337.039062 -34.167969 340.890625 -31.632812 344.6875 C -29.097656 348.480469 -26.46875 352.210938 -23.75 355.878906 C -21.03125 359.542969 -18.226562 363.140625 -15.328125 366.667969 C -12.433594 370.199219 -9.453125 373.652344 -6.390625 377.035156 C -3.324219 380.414062 -0.175781 383.71875 3.050781 386.949219 C 6.277344 390.175781 9.582031 393.320312 12.964844 396.386719 C 16.34375 399.453125 19.800781 402.433594 23.328125 405.328125 C 26.855469 408.222656 30.453125 411.03125 34.121094 413.75 C 37.785156 416.46875 41.515625 419.09375 45.308594 421.628906 C 49.105469 424.164062 52.960938 426.605469 56.875 428.953125 C 60.789062 431.300781 64.757812 433.546875 68.785156 435.699219 C 72.808594 437.851562 76.886719 439.902344 81.011719 441.855469 C 85.136719 443.804688 89.308594 445.65625 93.523438 447.402344 C 97.742188 449.148438 102 450.789062 106.296875 452.328125 C 110.59375 453.867188 114.925781 455.296875 119.292969 456.621094 C 123.660156 457.945312 128.058594 459.164062 132.484375 460.273438 C 136.914062 461.382812 141.363281 462.382812 145.839844 463.273438 C 150.316406 464.160156 154.8125 464.941406 159.328125 465.613281 C 163.84375 466.28125 168.371094 466.839844 172.914062 467.289062 C 177.457031 467.734375 182.007812 468.070312 186.566406 468.292969 C 191.125 468.519531 195.683594 468.628906 200.25 468.628906 C 204.8125 468.628906 209.375 468.519531 213.933594 468.292969 C 218.492188 468.070312 223.042969 467.734375 227.582031 467.289062 C 232.125 466.839844 236.65625 466.28125 241.167969 465.613281 C 245.683594 464.941406 250.179688 464.160156 254.65625 463.273438 C 259.132812 462.382812 263.585938 461.382812 268.011719 460.273438 C 272.4375 459.164062 276.835938 457.945312 281.203125 456.621094 C 285.570312 455.296875 289.902344 453.867188 294.199219 452.328125 C 298.5 450.789062 302.753906 449.148438 306.972656 447.402344 C 311.1875 445.65625 315.359375 443.804688 319.484375 441.855469 C 323.613281 439.902344 327.6875 437.851562 331.710938 435.699219 C 335.738281 433.546875 339.707031 431.300781 343.621094 428.953125 C 347.539062 426.605469 351.390625 424.164062 355.1875 421.628906 C 358.980469 419.09375 362.710938 416.46875 366.378906 413.75 C 370.042969 411.03125 373.640625 408.222656 377.167969 405.328125 C 380.699219 402.433594 384.152344 399.453125 387.535156 396.386719 C 390.914062 393.320312 394.21875 390.175781 397.449219 386.949219 C 400.675781 383.71875 403.820312 380.414062 406.886719 377.035156 C 409.953125 373.652344 412.933594 370.199219 415.828125 366.667969 C 418.722656 363.140625 421.53125 359.542969 424.25 355.878906 C 426.96875 352.210938 429.59375 348.480469 432.128906 344.6875 C 434.664062 340.890625 437.105469 337.039062 439.453125 333.121094 C 441.800781 329.207031 444.046875 325.238281 446.199219 321.210938 C 448.351562 317.1875 450.402344 313.113281 452.355469 308.984375 C 454.304688 304.859375 456.15625 300.6875 457.902344 296.472656 C 459.648438 292.253906 461.289062 288 462.828125 283.699219 C 464.367188 279.402344 465.796875 275.070312 467.121094 270.703125 C 468.445312 266.335938 469.664062 261.9375 470.773438 257.511719 C 471.882812 253.085938 472.882812 248.632812 473.773438 244.15625 C 474.660156 239.679688 475.441406 235.183594 476.113281 230.667969 C 476.78125 226.15625 477.339844 221.625 477.789062 217.082031 C 478.234375 212.542969 478.570312 207.992188 478.792969 203.433594 C 479.019531 198.875 479.128906 194.3125 479.128906 189.75 C 479.128906 185.183594 479.019531 180.625 478.792969 176.066406 C 478.570312 171.507812 478.234375 166.957031 477.789062 162.414062 C 477.339844 157.871094 476.78125 153.34375 476.113281 148.828125 C 475.441406 144.3125 474.660156 139.816406 473.773438 135.339844 C 472.882812 130.863281 471.882812 126.414062 470.773438 121.984375 C 469.664062 117.558594 468.445312 113.160156 467.121094 108.792969 C 465.796875 104.425781 464.367188 100.09375 462.828125 95.796875 C 461.289062 91.5 459.648438 87.242188 457.902344 83.023438 C 456.15625 78.808594 454.304688 74.636719 452.355469 70.511719 C 450.402344 66.386719 448.351562 62.308594 446.199219 58.285156 C 444.046875 54.257812 441.800781 50.289062 439.453125 46.375 C 437.105469 42.460938 434.664062 38.605469 432.128906 34.808594 C 429.59375 31.015625 426.96875 27.285156 424.25 23.621094 C 421.53125 19.953125 418.722656 16.355469 415.828125 12.828125 C 412.933594 9.300781 409.953125 5.84375 406.886719 2.464844 C 403.820312 -0.917969 400.675781 -4.222656 397.449219 -7.449219 C 394.21875 -10.675781 390.914062 -13.824219 387.535156 -16.890625 C 384.152344 -19.953125 380.699219 -22.933594 377.167969 -25.828125 C 373.640625 -28.726562 370.042969 -31.53125 366.378906 -34.25 C 362.710938 -36.96875 358.980469 -39.597656 355.1875 -42.132812 C 351.390625 -44.667969 347.539062 -47.109375 343.621094 -49.457031 C 339.707031 -51.800781 335.738281 -54.050781 331.710938 -56.203125 C 327.6875 -58.355469 323.613281 -60.40625 319.484375 -62.355469 C 315.359375 -64.308594 311.1875 -66.15625 306.972656 -67.902344 C 302.753906 -69.652344 298.5 -71.292969 294.199219 -72.832031 C 289.902344 -74.367188 285.570312 -75.800781 281.203125 -77.125 C 276.835938 -78.449219 272.4375 -79.667969 268.011719 -80.773438 C 263.585938 -81.882812 259.132812 -82.882812 254.65625 -83.773438 C 250.179688 -84.664062 245.683594 -85.445312 241.167969 -86.113281 C 236.65625 -86.785156 232.125 -87.34375 227.582031 -87.789062 C 223.042969 -88.238281 218.492188 -88.574219 213.933594 -88.796875 C 209.375 -89.019531 204.8125 -89.132812 200.25 -89.132812 Z M 195.992188 302.914062 C 194.605469 304.289062 193.011719 305.34375 191.207031 306.082031 C 189.398438 306.820312 187.523438 307.183594 185.570312 307.171875 C 183.621094 307.183594 181.742188 306.820312 179.9375 306.082031 C 178.128906 305.34375 176.535156 304.289062 175.148438 302.914062 L 87.082031 214.847656 C 86.566406 214.335938 86.09375 213.792969 85.660156 213.210938 C 85.226562 212.628906 84.835938 212.019531 84.492188 211.382812 C 84.148438 210.746094 83.855469 210.085938 83.609375 209.402344 C 83.363281 208.71875 83.167969 208.023438 83.027344 207.3125 C 82.882812 206.601562 82.792969 205.886719 82.757812 205.160156 C 82.722656 204.4375 82.738281 203.714844 82.808594 202.992188 C 82.878906 202.273438 83.003906 201.558594 83.179688 200.855469 C 83.355469 200.152344 83.582031 199.46875 83.863281 198.796875 C 84.140625 198.128906 84.464844 197.484375 84.839844 196.863281 C 85.210938 196.242188 85.628906 195.652344 86.089844 195.089844 C 86.550781 194.53125 87.050781 194.007812 87.589844 193.523438 C 88.128906 193.039062 88.699219 192.597656 89.304688 192.195312 C 89.90625 191.792969 90.539062 191.441406 91.195312 191.132812 C 91.851562 190.824219 92.527344 190.570312 93.222656 190.359375 C 93.914062 190.152344 94.621094 190 95.339844 189.894531 C 96.058594 189.792969 96.777344 189.746094 97.503906 189.75 L 126.859375 189.75 C 128.316406 189.773438 129.769531 189.726562 131.222656 189.605469 C 132.675781 189.484375 134.121094 189.292969 135.554688 189.027344 C 136.988281 188.765625 138.402344 188.433594 139.804688 188.027344 C 141.203125 187.625 142.582031 187.152344 143.933594 186.609375 C 145.289062 186.070312 146.613281 185.460938 147.90625 184.789062 C 149.199219 184.117188 150.457031 183.382812 151.675781 182.585938 C 152.894531 181.789062 154.074219 180.933594 155.210938 180.019531 C 156.34375 179.105469 157.433594 178.136719 158.472656 177.113281 C 159.511719 176.089844 160.496094 175.019531 161.429688 173.902344 C 162.363281 172.78125 163.238281 171.617188 164.054688 170.410156 C 164.871094 169.203125 165.625 167.957031 166.320312 166.675781 C 167.015625 165.394531 167.644531 164.082031 168.207031 162.738281 C 168.769531 161.394531 169.265625 160.023438 169.691406 158.628906 C 170.121094 157.238281 170.476562 155.824219 170.761719 154.394531 C 171.050781 152.96875 171.265625 151.527344 171.410156 150.078125 C 171.554688 148.625 171.625 147.171875 171.625 145.714844 C 171.625 144.257812 171.554688 142.804688 171.410156 141.351562 C 171.265625 139.902344 171.050781 138.460938 170.761719 137.035156 C 170.476562 135.605469 170.121094 134.191406 169.691406 132.800781 C 169.265625 131.40625 168.769531 130.035156 168.207031 128.691406 C 167.644531 127.347656 167.015625 126.035156 166.320312 124.753906 C 165.625 123.472656 164.871094 122.226562 164.054688 121.019531 C 163.238281 119.8125 162.363281 118.648438 161.429688 117.527344 C 160.496094 116.410156 159.511719 115.339844 158.472656 114.316406 C 157.433594 113.292969 156.34375 112.324219 155.210938 111.410156 C 154.074219 110.496094 152.894531 109.640625 151.675781 108.84375 C 150.457031 108.046875 149.199219 107.3125 147.90625 106.640625 C 146.613281 105.96875 145.289062 105.359375 143.933594 104.820312 C 142.582031 104.277344 141.203125 103.804688 139.804688 103.402344 C 138.402344 102.996094 136.988281 102.664062 135.554688 102.398438 C 134.121094 102.136719 132.675781 101.945312 131.222656 101.824219 C 129.769531 101.703125 128.316406 101.65625 126.859375 101.679688 L 82.824219 101.679688 C 81.859375 101.679688 80.90625 101.585938 79.960938 101.398438 C 79.015625 101.210938 78.097656 100.933594 77.207031 100.5625 C 76.316406 100.195312 75.472656 99.742188 74.671875 99.207031 C 73.867188 98.671875 73.128906 98.0625 72.445312 97.382812 C 71.765625 96.699219 71.15625 95.957031 70.621094 95.15625 C 70.085938 94.355469 69.632812 93.511719 69.265625 92.621094 C 68.894531 91.730469 68.617188 90.8125 68.429688 89.867188 C 68.242188 88.921875 68.148438 87.964844 68.148438 87.003906 C 68.148438 86.039062 68.242188 85.085938 68.429688 84.140625 C 68.617188 83.195312 68.894531 82.277344 69.265625 81.386719 C 69.632812 80.496094 70.085938 79.648438 70.621094 78.847656 C 71.15625 78.046875 71.765625 77.304688 72.445312 76.625 C 73.128906 75.941406 73.867188 75.335938 74.671875 74.796875 C 75.472656 74.261719 76.316406 73.8125 77.207031 73.441406 C 78.097656 73.074219 79.015625 72.796875 79.960938 72.605469 C 80.90625 72.417969 81.859375 72.324219 82.824219 72.324219 L 258.960938 72.324219 C 259.925781 72.324219 260.878906 72.417969 261.824219 72.605469 C 262.769531 72.796875 263.6875 73.074219 264.578125 73.441406 C 265.46875 73.8125 266.3125 74.261719 267.117188 74.796875 C 267.917969 75.335938 268.65625 75.941406 269.339844 76.625 C 270.019531 77.304688 270.628906 78.046875 271.164062 78.847656 C 271.699219 79.648438 272.152344 80.496094 272.519531 81.386719 C 272.890625 82.277344 273.167969 83.195312 273.355469 84.140625 C 273.542969 85.085938 273.636719 86.039062 273.636719 87.003906 C 273.636719 87.964844 273.542969 88.921875 273.355469 89.867188 C 273.167969 90.8125 272.890625 91.730469 272.519531 92.621094 C 272.152344 93.511719 271.699219 94.355469 271.164062 95.15625 C 270.628906 95.957031 270.019531 96.699219 269.339844 97.382812 C 268.65625 98.0625 267.917969 98.671875 267.117188 99.207031 C 266.3125 99.742188 265.46875 100.195312 264.578125 100.5625 C 263.6875 100.933594 262.769531 101.210938 261.824219 101.398438 C 260.878906 101.585938 259.925781 101.679688 258.960938 101.679688 L 185.570312 101.679688 C 187.933594 104.753906 190.027344 108 191.855469 111.417969 C 193.6875 114.832031 195.222656 118.375 196.472656 122.046875 C 197.71875 125.714844 198.660156 129.460938 199.296875 133.285156 C 199.929688 137.109375 200.246094 140.957031 200.25 144.835938 C 200.253906 147.121094 200.15625 149.40625 199.949219 151.6875 C 199.742188 153.964844 199.429688 156.230469 199.011719 158.480469 C 198.59375 160.730469 198.070312 162.957031 197.441406 165.15625 C 196.816406 167.359375 196.089844 169.523438 195.257812 171.65625 C 194.429688 173.789062 193.503906 175.878906 192.476562 177.925781 C 191.453125 179.972656 190.332031 181.96875 189.121094 183.910156 C 187.910156 185.851562 186.609375 187.730469 185.222656 189.550781 C 183.835938 191.371094 182.367188 193.121094 180.816406 194.804688 C 179.265625 196.488281 177.636719 198.09375 175.9375 199.625 C 174.234375 201.15625 172.464844 202.601562 170.628906 203.96875 C 168.789062 205.332031 166.894531 206.609375 164.9375 207.796875 C 162.980469 208.984375 160.972656 210.078125 158.914062 211.078125 C 156.855469 212.078125 154.753906 212.976562 152.613281 213.78125 C 150.46875 214.585938 148.292969 215.285156 146.082031 215.886719 C 143.875 216.484375 141.644531 216.980469 139.386719 217.371094 C 137.132812 217.761719 134.863281 218.046875 132.582031 218.222656 L 195.992188 281.925781 C 196.691406 282.609375 197.316406 283.355469 197.867188 284.164062 C 198.414062 284.972656 198.878906 285.828125 199.257812 286.726562 C 199.636719 287.628906 199.925781 288.558594 200.117188 289.515625 C 200.3125 290.476562 200.410156 291.445312 200.410156 292.421875 C 200.410156 293.398438 200.3125 294.367188 200.117188 295.324219 C 199.925781 296.285156 199.636719 297.214844 199.257812 298.113281 C 198.878906 299.015625 198.414062 299.871094 197.867188 300.679688 C 197.316406 301.488281 196.691406 302.234375 195.992188 302.914062 Z M 342.773438 251.394531 C 342.089844 252.074219 341.351562 252.675781 340.550781 253.210938 C 339.75 253.742188 338.910156 254.191406 338.019531 254.554688 C 337.132812 254.921875 336.21875 255.199219 335.277344 255.382812 C 334.335938 255.570312 333.382812 255.664062 332.425781 255.664062 C 331.464844 255.664062 330.511719 255.570312 329.570312 255.382812 C 328.628906 255.199219 327.714844 254.921875 326.828125 254.554688 C 325.941406 254.191406 325.097656 253.742188 324.296875 253.210938 C 323.496094 252.675781 322.757812 252.074219 322.074219 251.394531 L 256.90625 186.960938 C 256.539062 186.585938 256.152344 186.230469 255.75 185.894531 C 255.347656 185.558594 254.925781 185.246094 254.492188 184.949219 C 254.058594 184.65625 253.609375 184.382812 253.148438 184.132812 C 252.6875 183.882812 252.214844 183.65625 251.730469 183.457031 C 251.246094 183.253906 250.753906 183.074219 250.253906 182.921875 C 249.75 182.765625 249.242188 182.636719 248.730469 182.535156 C 248.214844 182.429688 247.695312 182.351562 247.175781 182.300781 C 246.652344 182.25 246.128906 182.222656 245.605469 182.222656 C 245.078125 182.222656 244.554688 182.25 244.035156 182.300781 C 243.511719 182.351562 242.992188 182.429688 242.480469 182.535156 C 241.964844 182.636719 241.457031 182.765625 240.953125 182.921875 C 240.453125 183.074219 239.960938 183.253906 239.476562 183.457031 C 238.992188 183.65625 238.519531 183.882812 238.058594 184.132812 C 237.597656 184.382812 237.148438 184.65625 236.714844 184.949219 C 236.28125 185.246094 235.863281 185.558594 235.457031 185.894531 C 235.054688 186.230469 234.667969 186.585938 234.300781 186.960938 C 233.546875 187.660156 232.871094 188.433594 232.277344 189.277344 C 231.683594 190.121094 231.183594 191.015625 230.78125 191.964844 C 230.375 192.910156 230.074219 193.890625 229.875 194.902344 C 229.679688 195.914062 229.585938 196.9375 229.605469 197.96875 C 229.59375 200.070312 229.996094 202.089844 230.8125 204.027344 C 231.628906 205.964844 232.789062 207.664062 234.300781 209.125 L 245.015625 219.839844 C 245.617188 220.53125 246.148438 221.269531 246.613281 222.0625 C 247.074219 222.855469 247.460938 223.679688 247.765625 224.542969 C 248.074219 225.40625 248.296875 226.292969 248.441406 227.195312 C 248.582031 228.101562 248.636719 229.011719 248.609375 229.929688 C 248.582031 230.84375 248.46875 231.75 248.269531 232.644531 C 248.070312 233.539062 247.792969 234.40625 247.429688 235.25 C 247.070312 236.089844 246.632812 236.894531 246.121094 237.652344 C 245.613281 238.414062 245.035156 239.121094 244.390625 239.773438 C 243.746094 240.425781 243.050781 241.011719 242.296875 241.535156 C 241.542969 242.054688 240.75 242.503906 239.910156 242.875 C 239.074219 243.25 238.210938 243.542969 237.316406 243.753906 C 236.425781 243.964844 235.523438 244.089844 234.605469 244.132812 C 233.691406 244.171875 232.78125 244.128906 231.875 244 C 230.964844 243.871094 230.078125 243.660156 229.210938 243.363281 C 228.34375 243.070312 227.511719 242.695312 226.714844 242.246094 C 225.917969 241.792969 225.167969 241.273438 224.46875 240.679688 L 213.605469 229.964844 C 212.546875 228.925781 211.546875 227.839844 210.597656 226.699219 C 209.648438 225.5625 208.757812 224.378906 207.925781 223.152344 C 207.09375 221.925781 206.328125 220.660156 205.621094 219.355469 C 204.914062 218.050781 204.277344 216.71875 203.703125 215.351562 C 203.128906 213.984375 202.625 212.589844 202.191406 211.175781 C 201.757812 209.757812 201.394531 208.320312 201.101562 206.871094 C 200.808594 205.417969 200.589844 203.953125 200.441406 202.476562 C 200.296875 201.003906 200.222656 199.523438 200.222656 198.042969 C 200.222656 196.558594 200.296875 195.082031 200.441406 193.605469 C 200.589844 192.132812 200.808594 190.667969 201.101562 189.214844 C 201.394531 187.761719 201.757812 186.328125 202.191406 184.910156 C 202.625 183.492188 203.128906 182.101562 203.703125 180.734375 C 204.277344 179.367188 204.914062 178.03125 205.621094 176.726562 C 206.328125 175.425781 207.09375 174.160156 207.925781 172.933594 C 208.757812 171.707031 209.648438 170.523438 210.597656 169.382812 C 211.546875 168.246094 212.546875 167.15625 213.605469 166.117188 C 214.65625 165.070312 215.753906 164.082031 216.898438 163.144531 C 218.046875 162.207031 219.238281 161.328125 220.46875 160.507812 C 221.703125 159.6875 222.972656 158.925781 224.28125 158.230469 C 225.585938 157.535156 226.925781 156.902344 228.292969 156.339844 C 229.664062 155.773438 231.058594 155.277344 232.476562 154.847656 C 233.890625 154.417969 235.328125 154.058594 236.78125 153.773438 C 238.234375 153.484375 239.695312 153.265625 241.171875 153.121094 C 242.644531 152.976562 244.121094 152.90625 245.605469 152.90625 C 247.085938 152.90625 248.5625 152.976562 250.035156 153.121094 C 251.511719 153.269531 252.972656 153.484375 254.425781 153.773438 C 255.878906 154.058594 257.316406 154.417969 258.734375 154.847656 C 260.148438 155.277344 261.542969 155.773438 262.914062 156.339844 C 264.28125 156.902344 265.621094 157.535156 266.925781 158.230469 C 268.234375 158.925781 269.503906 159.6875 270.738281 160.507812 C 271.96875 161.328125 273.160156 162.207031 274.308594 163.144531 C 275.453125 164.082031 276.550781 165.070312 277.601562 166.117188 L 342.625 230.554688 C 343.316406 231.230469 343.9375 231.96875 344.484375 232.769531 C 345.03125 233.570312 345.492188 234.414062 345.871094 235.308594 C 346.25 236.199219 346.539062 237.121094 346.734375 238.066406 C 346.933594 239.015625 347.035156 239.976562 347.039062 240.945312 C 347.046875 241.914062 346.960938 242.875 346.777344 243.824219 C 346.59375 244.777344 346.316406 245.699219 345.953125 246.597656 C 345.585938 247.492188 345.132812 248.347656 344.597656 249.152344 C 344.0625 249.960938 343.453125 250.710938 342.773438 251.394531 Z M 342.773438 251.394531 " fill-opacity="1" fill-rule="nonzero"/><path fill="#8a51fb" d="M 200.25 542.019531 C 194.484375 542.019531 188.722656 541.878906 182.964844 541.597656 C 177.207031 541.3125 171.457031 540.890625 165.71875 540.324219 C 159.984375 539.757812 154.261719 539.054688 148.558594 538.207031 C 142.855469 537.359375 137.179688 536.375 131.523438 535.25 C 125.871094 534.125 120.246094 532.863281 114.652344 531.464844 C 109.0625 530.0625 103.507812 528.523438 97.988281 526.851562 C 92.472656 525.179688 87 523.371094 81.570312 521.429688 C 76.144531 519.484375 70.765625 517.410156 65.441406 515.203125 C 60.113281 513 54.84375 510.664062 49.632812 508.199219 C 44.421875 505.734375 39.273438 503.140625 34.1875 500.425781 C 29.105469 497.707031 24.089844 494.867188 19.144531 491.902344 C 14.199219 488.9375 9.332031 485.855469 4.539062 482.652344 C -0.257812 479.449219 -4.96875 476.128906 -9.597656 472.695312 C -14.230469 469.261719 -18.773438 465.714844 -23.230469 462.058594 C -27.6875 458.402344 -32.050781 454.636719 -36.324219 450.765625 C -40.59375 446.894531 -44.769531 442.917969 -48.84375 438.84375 C -52.921875 434.765625 -56.894531 430.589844 -60.765625 426.320312 C -64.640625 422.046875 -68.402344 417.683594 -72.0625 413.226562 C -75.71875 408.769531 -79.265625 404.226562 -82.699219 399.597656 C -86.132812 394.964844 -89.453125 390.253906 -92.652344 385.460938 C -95.855469 380.667969 -98.941406 375.796875 -101.90625 370.851562 C -104.867188 365.90625 -107.710938 360.894531 -110.425781 355.808594 C -113.144531 350.722656 -115.734375 345.574219 -118.199219 340.363281 C -120.664062 335.152344 -123 329.882812 -125.207031 324.558594 C -127.414062 319.230469 -129.488281 313.855469 -131.429688 308.425781 C -133.371094 302.996094 -135.179688 297.523438 -136.855469 292.007812 C -138.527344 286.492188 -140.066406 280.9375 -141.464844 275.34375 C -142.867188 269.75 -144.128906 264.128906 -145.253906 258.472656 C -146.378906 252.820312 -147.363281 247.140625 -148.210938 241.4375 C -149.054688 235.734375 -149.761719 230.015625 -150.328125 224.277344 C -150.890625 218.539062 -151.316406 212.792969 -151.597656 207.035156 C -151.882812 201.277344 -152.023438 195.515625 -152.023438 189.75 C -152.023438 183.984375 -151.882812 178.222656 -151.597656 172.464844 C -151.316406 166.707031 -150.890625 160.957031 -150.328125 155.21875 C -149.761719 149.484375 -149.054688 143.761719 -148.210938 138.058594 C -147.363281 132.355469 -146.378906 126.679688 -145.253906 121.023438 C -144.128906 115.371094 -142.867188 109.746094 -141.464844 104.152344 C -140.066406 98.5625 -138.527344 93.007812 -136.855469 87.488281 C -135.179688 81.972656 -133.371094 76.5 -131.429688 71.070312 C -129.488281 65.644531 -127.414062 60.265625 -125.207031 54.941406 C -123 49.613281 -120.664062 44.34375 -118.199219 39.132812 C -115.734375 33.921875 -113.144531 28.773438 -110.425781 23.6875 C -107.710938 18.605469 -104.867188 13.589844 -101.90625 8.644531 C -98.941406 3.699219 -95.855469 -1.167969 -92.652344 -5.960938 C -89.453125 -10.757812 -86.132812 -15.46875 -82.699219 -20.097656 C -79.265625 -24.730469 -75.71875 -29.273438 -72.0625 -33.730469 C -68.402344 -38.1875 -64.640625 -42.550781 -60.765625 -46.824219 C -56.894531 -51.09375 -52.921875 -55.269531 -48.84375 -59.34375 C -44.769531 -63.421875 -40.59375 -67.394531 -36.324219 -71.265625 C -32.050781 -75.140625 -27.6875 -78.902344 -23.230469 -82.5625 C -18.773438 -86.21875 -14.230469 -89.765625 -9.597656 -93.199219 C -4.96875 -96.632812 -0.257812 -99.953125 4.539062 -103.152344 C 9.332031 -106.355469 14.199219 -109.441406 19.144531 -112.40625 C 24.089844 -115.367188 29.105469 -118.210938 34.1875 -120.925781 C 39.273438 -123.644531 44.421875 -126.234375 49.632812 -128.699219 C 54.84375 -131.164062 60.113281 -133.5 65.441406 -135.707031 C 70.765625 -137.914062 76.144531 -139.988281 81.570312 -141.929688 C 87 -143.871094 92.472656 -145.679688 97.988281 -147.355469 C 103.507812 -149.027344 109.0625 -150.566406 114.652344 -151.964844 C 120.246094 -153.367188 125.871094 -154.628906 131.523438 -155.753906 C 137.179688 -156.878906 142.855469 -157.863281 148.558594 -158.710938 C 154.261719 -159.554688 159.984375 -160.261719 165.71875 -160.828125 C 171.457031 -161.390625 177.207031 -161.816406 182.964844 -162.097656 C 188.722656 -162.382812 194.484375 -162.523438 200.25 -162.523438 C 206.015625 -162.523438 211.777344 -162.382812 217.535156 -162.097656 C 223.292969 -161.816406 229.039062 -161.390625 234.777344 -160.828125 C 240.515625 -160.261719 246.234375 -159.554688 251.9375 -158.710938 C 257.640625 -157.863281 263.320312 -156.878906 268.972656 -155.753906 C 274.628906 -154.628906 280.25 -153.367188 285.84375 -151.964844 C 291.4375 -150.566406 296.992188 -149.027344 302.507812 -147.355469 C 308.023438 -145.679688 313.496094 -143.871094 318.925781 -141.929688 C 324.355469 -139.988281 329.730469 -137.914062 335.058594 -135.707031 C 340.382812 -133.5 345.652344 -131.164062 350.863281 -128.699219 C 356.074219 -126.234375 361.222656 -123.644531 366.308594 -120.925781 C 371.394531 -118.210938 376.40625 -115.367188 381.351562 -112.40625 C 386.296875 -109.441406 391.167969 -106.355469 395.960938 -103.152344 C 400.753906 -99.953125 405.464844 -96.632812 410.097656 -93.199219 C 414.726562 -89.765625 419.269531 -86.21875 423.726562 -82.5625 C 428.183594 -78.902344 432.546875 -75.140625 436.820312 -71.265625 C 441.089844 -67.394531 445.265625 -63.421875 449.34375 -59.34375 C 453.417969 -55.269531 457.394531 -51.09375 461.265625 -46.824219 C 465.136719 -42.550781 468.902344 -38.1875 472.558594 -33.730469 C 476.214844 -29.273438 479.761719 -24.730469 483.195312 -20.097656 C 486.628906 -15.46875 489.949219 -10.757812 493.152344 -5.960938 C 496.355469 -1.167969 499.4375 3.699219 502.402344 8.644531 C 505.367188 13.589844 508.207031 18.605469 510.925781 23.6875 C 513.640625 28.773438 516.234375 33.921875 518.699219 39.132812 C 521.164062 44.34375 523.5 49.613281 525.703125 54.941406 C 527.910156 60.265625 529.984375 65.644531 531.929688 71.070312 C 533.871094 76.5 535.679688 81.972656 537.351562 87.488281 C 539.023438 93.007812 540.5625 98.5625 541.964844 104.152344 C 543.363281 109.746094 544.625 115.371094 545.75 121.023438 C 546.875 126.679688 547.863281 132.355469 548.707031 138.058594 C 549.554688 143.761719 550.257812 149.484375 550.824219 155.21875 C 551.390625 160.957031 551.8125 166.707031 552.097656 172.464844 C 552.378906 178.222656 552.519531 183.984375 552.519531 189.75 C 552.519531 195.515625 552.378906 201.277344 552.097656 207.035156 C 551.8125 212.792969 551.390625 218.539062 550.824219 224.277344 C 550.257812 230.015625 549.554688 235.734375 548.707031 241.4375 C 547.859375 247.140625 546.875 252.820312 545.75 258.472656 C 544.625 264.128906 543.363281 269.75 541.964844 275.34375 C 540.5625 280.9375 539.023438 286.492188 537.351562 292.007812 C 535.679688 297.523438 533.871094 302.996094 531.929688 308.425781 C 529.984375 313.855469 527.910156 319.230469 525.703125 324.558594 C 523.5 329.882812 521.164062 335.152344 518.699219 340.363281 C 516.234375 345.574219 513.640625 350.722656 510.925781 355.808594 C 508.207031 360.894531 505.367188 365.90625 502.402344 370.851562 C 499.4375 375.796875 496.355469 380.667969 493.152344 385.460938 C 489.949219 390.253906 486.628906 394.964844 483.195312 399.597656 C 479.761719 404.226562 476.214844 408.769531 472.558594 413.226562 C 468.902344 417.683594 465.136719 422.046875 461.265625 426.320312 C 457.394531 430.589844 453.417969 434.765625 449.34375 438.84375 C 445.265625 442.917969 441.089844 446.894531 436.820312 450.765625 C 432.546875 454.636719 428.183594 458.402344 423.726562 462.058594 C 419.269531 465.714844 414.726562 469.261719 410.097656 472.695312 C 405.464844 476.128906 400.753906 479.449219 395.960938 482.652344 C 391.167969 485.855469 386.296875 488.9375 381.351562 491.902344 C 376.40625 494.867188 371.394531 497.707031 366.308594 500.425781 C 361.222656 503.140625 356.074219 505.734375 350.863281 508.199219 C 345.652344 510.664062 340.382812 513 335.058594 515.203125 C 329.730469 517.410156 324.355469 519.484375 318.925781 521.429688 C 313.496094 523.371094 308.023438 525.179688 302.507812 526.851562 C 296.992188 528.523438 291.4375 530.0625 285.84375 531.464844 C 280.25 532.863281 274.628906 534.125 268.972656 535.25 C 263.320312 536.375 257.640625 537.363281 251.9375 538.207031 C 246.234375 539.054688 240.515625 539.757812 234.777344 540.324219 C 229.039062 540.890625 223.292969 541.3125 217.535156 541.597656 C 211.777344 541.878906 206.015625 542.019531 200.25 542.019531 Z M 200.25 -133.167969 C 194.964844 -133.167969 189.683594 -133.035156 184.402344 -132.777344 C 179.125 -132.519531 173.855469 -132.128906 168.597656 -131.613281 C 163.339844 -131.09375 158.09375 -130.445312 152.867188 -129.671875 C 147.640625 -128.894531 142.433594 -127.992188 137.25 -126.960938 C 132.066406 -125.929688 126.914062 -124.773438 121.785156 -123.488281 C 116.660156 -122.207031 111.570312 -120.796875 106.511719 -119.261719 C 101.453125 -117.726562 96.4375 -116.070312 91.460938 -114.289062 C 86.484375 -112.511719 81.558594 -110.609375 76.675781 -108.585938 C 71.792969 -106.5625 66.960938 -104.421875 62.183594 -102.164062 C 57.40625 -99.902344 52.6875 -97.527344 48.027344 -95.039062 C 43.367188 -92.546875 38.769531 -89.941406 34.238281 -87.226562 C 29.703125 -84.507812 25.242188 -81.683594 20.847656 -78.746094 C 16.453125 -75.808594 12.132812 -72.765625 7.886719 -69.621094 C 3.644531 -66.472656 -0.523438 -63.222656 -4.605469 -59.867188 C -8.691406 -56.515625 -12.691406 -53.066406 -16.609375 -49.515625 C -20.523438 -45.96875 -24.351562 -42.324219 -28.085938 -38.585938 C -31.824219 -34.851562 -35.46875 -31.023438 -39.015625 -27.109375 C -42.566406 -23.191406 -46.015625 -19.191406 -49.367188 -15.105469 C -52.722656 -11.023438 -55.972656 -6.855469 -59.121094 -2.613281 C -62.265625 1.632812 -65.308594 5.953125 -68.246094 10.347656 C -71.183594 14.742188 -74.007812 19.203125 -76.726562 23.738281 C -79.441406 28.269531 -82.046875 32.867188 -84.539062 37.527344 C -87.027344 42.1875 -89.402344 46.90625 -91.664062 51.683594 C -93.921875 56.460938 -96.0625 61.292969 -98.085938 66.175781 C -100.109375 71.058594 -102.011719 75.984375 -103.789062 80.960938 C -105.570312 85.9375 -107.226562 90.953125 -108.761719 96.011719 C -110.296875 101.070312 -111.707031 106.160156 -112.988281 111.285156 C -114.273438 116.414062 -115.429688 121.566406 -116.460938 126.75 C -117.492188 131.933594 -118.394531 137.140625 -119.171875 142.367188 C -119.945312 147.59375 -120.59375 152.839844 -121.113281 158.097656 C -121.628906 163.355469 -122.019531 168.625 -122.277344 173.902344 C -122.535156 179.183594 -122.667969 184.464844 -122.667969 189.75 C -122.667969 195.035156 -122.535156 200.316406 -122.277344 205.59375 C -122.019531 210.871094 -121.628906 216.140625 -121.113281 221.398438 C -120.59375 226.660156 -119.945312 231.902344 -119.171875 237.128906 C -118.394531 242.359375 -117.492188 247.5625 -116.460938 252.746094 C -115.429688 257.929688 -114.273438 263.085938 -112.988281 268.210938 C -111.707031 273.335938 -110.296875 278.429688 -108.761719 283.484375 C -107.226562 288.542969 -105.570312 293.558594 -103.789062 298.535156 C -102.011719 303.511719 -100.109375 308.441406 -98.085938 313.324219 C -96.0625 318.207031 -93.921875 323.035156 -91.664062 327.8125 C -89.402344 332.589844 -87.027344 337.308594 -84.539062 341.96875 C -82.046875 346.628906 -79.441406 351.226562 -76.726562 355.761719 C -74.007812 360.292969 -71.183594 364.757812 -68.246094 369.152344 C -65.308594 373.546875 -62.265625 377.863281 -59.121094 382.109375 C -55.972656 386.355469 -52.722656 390.519531 -49.367188 394.605469 C -46.015625 398.6875 -42.566406 402.691406 -39.015625 406.605469 C -35.46875 410.519531 -31.824219 414.347656 -28.085938 418.085938 C -24.351562 421.820312 -20.523438 425.464844 -16.609375 429.011719 C -12.691406 432.5625 -8.691406 436.011719 -4.605469 439.367188 C -0.523438 442.71875 3.644531 445.96875 7.886719 449.117188 C 12.132812 452.265625 16.453125 455.308594 20.847656 458.242188 C 25.242188 461.179688 29.703125 464.003906 34.238281 466.722656 C 38.769531 469.441406 43.367188 472.042969 48.027344 474.535156 C 52.6875 477.027344 57.40625 479.402344 62.183594 481.660156 C 66.960938 483.921875 71.792969 486.0625 76.675781 488.082031 C 81.558594 490.105469 86.484375 492.007812 91.460938 493.789062 C 96.4375 495.566406 101.453125 497.226562 106.511719 498.757812 C 111.570312 500.292969 116.660156 501.703125 121.785156 502.988281 C 126.914062 504.269531 132.066406 505.429688 137.25 506.460938 C 142.433594 507.492188 147.640625 508.394531 152.867188 509.167969 C 158.09375 509.945312 163.339844 510.589844 168.597656 511.109375 C 173.855469 511.628906 179.125 512.015625 184.402344 512.273438 C 189.683594 512.535156 194.964844 512.664062 200.25 512.664062 C 205.535156 512.664062 210.816406 512.535156 216.09375 512.273438 C 221.371094 512.015625 226.640625 511.628906 231.898438 511.109375 C 237.160156 510.589844 242.402344 509.945312 247.628906 509.167969 C 252.859375 508.394531 258.0625 507.492188 263.246094 506.460938 C 268.429688 505.429688 273.585938 504.269531 278.710938 502.988281 C 283.835938 501.703125 288.929688 500.292969 293.984375 498.757812 C 299.042969 497.226562 304.058594 495.566406 309.035156 493.789062 C 314.011719 492.007812 318.941406 490.105469 323.824219 488.082031 C 328.707031 486.0625 333.535156 483.921875 338.3125 481.660156 C 343.089844 479.402344 347.808594 477.027344 352.46875 474.535156 C 357.128906 472.042969 361.726562 469.441406 366.261719 466.722656 C 370.792969 464.003906 375.257812 461.179688 379.652344 458.242188 C 384.046875 455.308594 388.363281 452.265625 392.609375 449.117188 C 396.855469 445.96875 401.019531 442.71875 405.105469 439.367188 C 409.1875 436.011719 413.191406 432.5625 417.105469 429.011719 C 421.019531 425.464844 424.847656 421.820312 428.585938 418.085938 C 432.320312 414.347656 435.964844 410.519531 439.511719 406.605469 C 443.0625 402.691406 446.511719 398.6875 449.867188 394.605469 C 453.21875 390.519531 456.46875 386.355469 459.617188 382.109375 C 462.765625 377.863281 465.808594 373.546875 468.742188 369.152344 C 471.679688 364.757812 474.503906 360.292969 477.222656 355.761719 C 479.941406 351.226562 482.542969 346.628906 485.035156 341.96875 C 487.527344 337.308594 489.902344 332.589844 492.160156 327.8125 C 494.421875 323.035156 496.5625 318.207031 498.582031 313.324219 C 500.605469 308.441406 502.507812 303.511719 504.289062 298.535156 C 506.066406 293.558594 507.726562 288.542969 509.257812 283.484375 C 510.792969 278.429688 512.203125 273.335938 513.488281 268.210938 C 514.769531 263.085938 515.929688 257.929688 516.960938 252.746094 C 517.992188 247.5625 518.894531 242.359375 519.667969 237.128906 C 520.445312 231.902344 521.089844 226.660156 521.609375 221.398438 C 522.128906 216.140625 522.515625 210.871094 522.773438 205.59375 C 523.035156 200.316406 523.164062 195.035156 523.164062 189.75 C 523.164062 184.464844 523.035156 179.183594 522.773438 173.902344 C 522.515625 168.625 522.128906 163.355469 521.609375 158.097656 C 521.089844 152.839844 520.445312 147.59375 519.667969 142.367188 C 518.894531 137.140625 517.992188 131.933594 516.960938 126.75 C 515.929688 121.566406 514.769531 116.414062 513.488281 111.285156 C 512.203125 106.160156 510.792969 101.070312 509.257812 96.011719 C 507.726562 90.953125 506.066406 85.9375 504.289062 80.960938 C 502.507812 75.984375 500.605469 71.058594 498.582031 66.175781 C 496.5625 61.292969 494.421875 56.460938 492.160156 51.683594 C 489.902344 46.90625 487.527344 42.1875 485.035156 37.527344 C 482.542969 32.867188 479.941406 28.269531 477.222656 23.738281 C 474.503906 19.203125 471.679688 14.742188 468.742188 10.347656 C 465.808594 5.953125 462.765625 1.632812 459.617188 -2.613281 C 456.46875 -6.855469 453.21875 -11.023438 449.867188 -15.105469 C 446.511719 -19.191406 443.0625 -23.191406 439.511719 -27.109375 C 435.964844 -31.023438 432.320312 -34.851562 428.585938 -38.585938 C 424.847656 -42.324219 421.019531 -45.96875 417.105469 -49.515625 C 413.191406 -53.066406 409.1875 -56.515625 405.105469 -59.867188 C 401.019531 -63.222656 396.855469 -66.472656 392.609375 -69.621094 C 388.363281 -72.765625 384.046875 -75.808594 379.652344 -78.746094 C 375.257812 -81.683594 370.792969 -84.507812 366.261719 -87.226562 C 361.726562 -89.941406 357.128906 -92.546875 352.46875 -95.039062 C 347.808594 -97.527344 343.089844 -99.902344 338.3125 -102.164062 C 333.535156 -104.421875 328.707031 -106.5625 323.824219 -108.585938 C 318.941406 -110.609375 314.011719 -112.511719 309.035156 -114.289062 C 304.058594 -116.070312 299.042969 -117.726562 293.984375 -119.261719 C 288.929688 -120.796875 283.835938 -122.207031 278.710938 -123.488281 C 273.585938 -124.773438 268.429688 -125.929688 263.246094 -126.960938 C 258.0625 -127.992188 252.859375 -128.894531 247.628906 -129.671875 C 242.402344 -130.445312 237.160156 -131.09375 231.898438 -131.613281 C 226.640625 -132.128906 221.371094 -132.519531 216.09375 -132.777344 C 210.816406 -133.035156 205.535156 -133.167969 200.25 -133.167969 Z M 200.25 -133.167969 " fill-opacity="1" fill-rule="nonzero"/></svg>